# xmcd
#
# Track frame offsets:
#	183
#	13305
#	52185
#	83915
#	103475
#	142793
#	160590
#	183748
#	223235
#	240725
#	274703
#	300565
#
# Disc length: 4417 seconds
#
# Revision: 1
# Processed by: cddbd v1.5.2PL0 Copyright (c) Steve Scherf et al.
# Submitted via: audiograbber 1.83.01
#
DISCID=ae113f0c
DTITLE=Ryder, Mitch  - Soul kitchen
DYEAR=1991
DGENRE=
TTITLE0=long hard road
TTITLE1=war
TTITLE2=nice and easy
TTITLE3=jenny take a ride
TTITLE4=ain't nobody white
TTITLE5=devil with a blue dress on
TTITLE6=liberty
TTITLE7=dance ourselves to death
TTITLE8=wicked messenger
TTITLE9=rock and roll
TTITLE10=tough kid
TTITLE11=true love
EXTD=
EXTT0=
EXTT1=
EXTT2=
EXTT3=
EXTT4=
EXTT5=
EXTT6=
EXTT7=
EXTT8=
EXTT9=
EXTT10=
EXTT11=
PLAYORDER=
